<?xml version="1.0" encoding="UTF-8"?>
<svg xmlns="http://www.w3.org/2000/svg" width="183" height="32" viewBox="0 0 183 32" fill="none">
  <g clip-path="url(#clip0_457_24317)">
    <path d="M67.1641 5.58474H71.1919V9.27785H67.1641V5.58474ZM85.6297 5.58474H81.6002V9.27785H85.6297V5.58474ZM137.723 12.9189C137.569 11.029 136.955 9.44257 135.728 8.23234C131.66 3.69658 123.986 4.45254 120.841 9.66797C119.074 12.6155 118.691 15.7902 119.23 19.1157C120.074 24.0295 123.605 27.9584 129.514 27.733C134.119 27.5059 137.956 23.5007 137.803 18.9649H133.583C133.505 19.4192 133.429 19.8717 133.276 20.326C132.817 21.8379 132.048 23.1227 130.36 23.5752C128.135 24.2549 125.756 23.4244 124.681 21.3836C122.992 18.2089 122.992 14.9597 124.529 11.8596C125.911 9.13914 129.21 8.38318 131.589 10.0459C132.586 10.7256 133.201 11.7087 133.43 12.9172H137.729M78.2469 5.58301H74.2192V27.0707H78.2469V5.58474V5.58301ZM85.6349 11.6255H81.6054V27.0689H85.6349V11.6255ZM71.1971 11.6255H67.1694V27.0689H71.1971V11.6255ZM28.9223 8.91547C28.813 11.3932 26.6561 14.5141 25.1824 15.8682C28.0259 18.8799 29.328 21.8743 28.1975 23.8336C26.8729 26.1274 22.6752 25.8205 20.0397 25.238C19.0202 28.6294 16.6535 33.3801 13.2777 31.6203C11.1694 30.2748 9.56034 26.6805 9.11647 24.9467C5.14248 25.8674 1.95392 25.4859 0.83385 23.5457C-0.456137 21.3108 1.75453 17.9489 3.55427 15.9358C1.12861 13.3559 -1.78774 8.93975 1.41989 6.90074C3.86463 5.62982 7.58027 6.12744 9.27252 6.56784C10.4533 2.61465 12.3917 0 14.6509 0C17.269 0 19.0913 3.70178 19.9166 6.27482C23.3601 5.44603 28.7524 5.08019 28.9171 8.91894M16.7888 2.09623C15.882 1.4495 12.9361 0.764629 10.8451 7.06199C12.2651 7.59775 15.8456 9.04898 17.7719 10.1621C20.1646 11.544 22.2886 13.1114 24.0068 14.71C25.3141 13.3576 27.8802 9.8795 26.6752 7.79194C25.4875 5.73385 21.895 6.09449 19.9791 6.47594C20.0744 6.78457 20.1542 7.07239 20.2183 7.3342H20.0172L19.8022 6.64586C19.7883 6.60425 19.7745 6.56264 19.7606 6.52102C19.3531 6.60772 19.0428 6.69094 18.8781 6.74122L18.8989 6.54703C19.1468 6.47247 19.4121 6.39965 19.693 6.32857C18.7706 3.7642 17.7008 2.74296 16.7888 2.0945M10.4186 8.50282C8.94655 14.1569 9.70771 20.5566 10.2695 22.9701C15.8958 21.4287 21.0419 17.5535 22.8729 15.8474C18.7324 11.8075 12.8044 9.23797 10.4186 8.50282ZM1.57247 20.6467C1.46671 21.7495 2.33537 24.6173 8.73502 23.3325C8.49575 21.9072 8.01721 20.8461 8.01721 15.8596C8.01721 13.0524 8.32236 10.3893 8.86333 8.07629C7.02197 7.62375 2.75669 7.32727 1.5586 9.40442C0.393451 11.4226 2.39952 14.2818 3.69297 15.7763C3.93918 15.5059 4.17672 15.2648 4.39345 15.0568L4.49401 15.2302L4.00507 15.7607C3.94958 15.8231 3.89584 15.8856 3.84382 15.948C4.15591 16.2982 4.41252 16.5566 4.5495 16.6831L4.37091 16.7629C4.15938 16.5635 3.93745 16.345 3.70858 16.1075C2.01634 18.1396 1.6765 19.5509 1.57074 20.6467M25.3055 24.6398C26.325 24.1751 28.4073 21.9437 23.9028 16.9259C22.7879 17.8466 19.8473 20.2219 17.8776 21.3593C15.4485 22.762 12.9934 23.8283 10.7203 24.5167C11.237 26.3251 12.9552 30.2436 15.367 30.2436C17.7788 30.2436 19.1798 27.0568 19.823 25.1929C19.5456 25.127 19.2873 25.0594 19.0549 24.9935L19.1555 24.8201L19.8594 24.9779C19.8716 24.9796 19.882 24.9831 19.8941 24.9848C20.0397 24.5444 20.1334 24.1977 20.175 24.0156L20.3328 24.13C20.2669 24.4092 20.1889 24.7091 20.097 25.023C22.8382 25.5327 24.2773 25.1114 25.3072 24.6415M36.9136 18.8643C36.9136 21.1599 37.2604 22.9493 37.9539 24.2289C39.256 26.573 41.7268 27.7469 45.3644 27.7469C49.002 27.7469 51.4693 26.5748 52.761 24.2289C53.4546 22.9493 53.8013 21.1617 53.8013 18.8643V5.58474H49.3332V18.8522C49.3332 20.3364 49.1615 21.42 48.8217 22.1032C48.2912 23.3134 47.1381 23.9185 45.3644 23.9185C43.5907 23.9185 42.4238 23.3134 41.8932 22.1032C41.5517 21.42 41.3817 20.3364 41.3817 18.8522V5.58474H36.9136V18.8626V18.8643ZM58.4221 14.3303V23.9098C58.4221 24.8808 58.6509 25.5986 59.1069 26.065C59.8109 26.7984 61.1251 27.1313 63.0462 27.0637L64.9743 26.9926V23.9515C64.8408 23.9601 64.7055 23.9688 64.5668 23.9723C64.4281 23.9775 64.2981 23.9792 64.175 23.9792C63.3462 23.9792 62.8521 23.9012 62.6908 23.7434C62.5278 23.5856 62.4481 23.1886 62.4481 22.5505V14.3268H64.9743V11.4296H62.4481V6.92674H58.4221V11.4296H56.253V14.3268H58.4221V14.3303ZM95.5092 14.8244L87.7953 23.9046V27.0741H100.915V23.733H93.009L100.645 14.8955V11.5128H88.338V14.8244H95.5092ZM153.184 25.3403C154.497 23.7191 155.154 21.7668 155.154 19.485C155.154 17.2033 154.497 15.2961 153.184 13.6506C151.872 12.0052 149.878 11.1834 147.202 11.1834C144.527 11.1834 142.533 12.0052 141.221 13.6506C139.906 15.2961 139.251 17.2397 139.251 19.485C139.251 21.7304 139.908 23.7191 141.221 25.3403C142.533 26.9614 144.527 27.7729 147.202 27.7729C149.878 27.7729 151.872 26.9614 153.184 25.3403ZM149.93 23.0915C149.292 23.9376 148.378 24.3606 147.188 24.3606C145.999 24.3606 145.082 23.9376 144.44 23.0915C143.797 22.2453 143.476 21.0438 143.476 19.485C143.476 17.9263 143.797 16.7265 144.44 15.8856C145.082 15.0446 145.999 14.6233 147.188 14.6233C148.378 14.6233 149.292 15.0446 149.93 15.8856C150.568 16.7265 150.887 17.9263 150.887 19.485C150.887 21.0438 150.568 22.2453 149.93 23.0915ZM166.165 11.3914C166.113 11.3862 166.051 11.3845 165.975 11.3845C164.775 11.3845 163.8 11.6983 163.05 12.326C162.59 12.7005 162.051 13.3992 161.434 14.4205V11.7486H157.609V27.0741H161.644V19.7486C161.644 18.521 161.798 17.6107 162.108 17.0212C162.661 15.9723 163.743 15.4469 165.356 15.4469C165.477 15.4469 165.637 15.4521 165.834 15.4608C166.03 15.4694 166.256 15.4885 166.509 15.5163V11.4105C166.33 11.4018 166.216 11.3949 166.164 11.3897M178.377 11.9965C177.292 11.5111 176.071 11.2666 174.717 11.2666C172.437 11.2666 170.582 11.9861 169.153 13.4252C167.724 14.8626 167.01 16.9311 167.01 19.6255C167.01 22.502 167.802 24.5791 169.385 25.8552C170.968 27.1313 172.796 27.7694 174.866 27.7694C177.375 27.7694 179.325 27.0134 180.721 25.4998C181.618 24.5479 182.12 23.6099 182.23 22.6875H178.075C177.833 23.1452 177.553 23.5007 177.238 23.759C176.659 24.2341 175.906 24.4733 174.979 24.4733C174.105 24.4733 173.357 24.2792 172.735 23.8873C171.714 23.2596 171.171 22.1638 171.107 20.6034H182.441C182.462 19.2596 182.417 18.2297 182.308 17.5154C182.119 16.2948 181.704 15.2232 181.068 14.2991C180.361 13.2501 179.464 12.4837 178.379 11.9965M172.291 15.5111C172.865 14.9181 173.675 14.6216 174.72 14.6216C175.681 14.6216 176.485 14.9007 177.134 15.4608C177.782 16.0208 178.143 16.8392 178.217 17.9194H171.207C171.355 16.9068 171.716 16.104 172.291 15.5111ZM113.781 11.9965C112.695 11.5111 111.475 11.2666 110.12 11.2666C107.84 11.2666 105.985 11.9861 104.556 13.4252C103.128 14.8626 102.413 16.9311 102.413 19.6255C102.413 22.502 103.206 24.5791 104.789 25.8552C106.372 27.1313 108.199 27.7694 110.269 27.7694C112.778 27.7694 114.729 27.0134 116.125 25.4998C117.021 24.5479 117.524 23.6099 117.633 22.6875H113.479C113.236 23.1452 112.957 23.5007 112.641 23.759C112.062 24.2341 111.31 24.4733 110.382 24.4733C109.508 24.4733 108.761 24.2792 108.139 23.8873C107.117 23.2596 106.575 22.1638 106.51 20.6034H117.845C117.865 19.2596 117.82 18.2297 117.711 17.5154C117.522 16.2948 117.108 15.2232 116.471 14.2991C115.764 13.2501 114.868 12.4837 113.782 11.9965M107.695 15.5111C108.269 14.9181 109.078 14.6216 110.124 14.6216C111.084 14.6216 111.889 14.9007 112.537 15.4608C113.186 16.0208 113.546 16.8392 113.621 17.9194H106.611C106.758 16.9068 107.119 16.104 107.695 15.5111Z" fill="#1674F5"></path>
  </g>
  <defs>
    <clipPath id="clip0_457_24317">
      <rect width="182.448" height="32" fill="white"></rect>
    </clipPath>
  </defs>
</svg>
